<svg width="100" height="100" viewBox="0 0 100 100" xmlns="http://www.w3.org/2000/svg">
  <defs>
    <!-- Primary Green -->
    <linearGradient id="primaryGradient" x1="0%" y1="0%" x2="100%" y2="100%">
      <stop offset="0%" stop-color="#00572d" stop-opacity="0.8" />
      <stop offset="100%" stop-color="#00572d" stop-opacity="0.4" />
    </linearGradient>
    
    <!-- Secondary Green -->
    <linearGradient id="secondaryGradient" x1="0%" y1="0%" x2="100%" y2="100%">
      <stop offset="0%" stop-color="#1f9345" stop-opacity="0.8" />
      <stop offset="100%" stop-color="#1f9345" stop-opacity="0.4" />
    </linearGradient>
    
    <!-- Accent Gold -->
    <linearGradient id="accentGradient" x1="0%" y1="0%" x2="100%" y2="100%">
      <stop offset="0%" stop-color="#f3c300" stop-opacity="0.8" />
      <stop offset="100%" stop-color="#f3c300" stop-opacity="0.4" />
    </linearGradient>
    
    <!-- Pattern Definition -->
    <pattern id="geometricPattern" x="0" y="0" width="50" height="50" patternUnits="userSpaceOnUse">
      <!-- Leaf Shape -->
      <path d="M25,5 C30,5 35,10 35,15 C35,20 30,25 25,25 C20,25 15,20 15,15 C15,10 20,5 25,5 Z" fill="url(#primaryGradient)" opacity="0.6" />
      
      <!-- Small Circle -->
      <circle cx="10" cy="10" r="3" fill="url(#accentGradient)" opacity="0.7" />
      
      <!-- Small Square -->
      <rect x="37" y="37" width="6" height="6" fill="url(#secondaryGradient)" opacity="0.7" />
      
      <!-- Diagonal Line -->
      <line x1="5" y1="45" x2="45" y2="5" stroke="url(#accentGradient)" stroke-width="1" opacity="0.5" />
    </pattern>
    
    <!-- University Pattern -->
    <pattern id="universityPattern" x="0" y="0" width="100" height="100" patternUnits="userSpaceOnUse">
      <!-- Background with Geometric Pattern -->
      <rect x="0" y="0" width="100" height="100" fill="url(#geometricPattern)" />
      
      <!-- Abstract Building Shape -->
      <path d="M20,80 L20,40 L40,30 L60,40 L60,80 Z" fill="url(#primaryGradient)" opacity="0.3" />
      
      <!-- Abstract Tree -->
      <path d="M70,80 L70,60 C70,50 80,40 80,50 C80,60 90,50 90,60 L90,80 Z" fill="url(#secondaryGradient)" opacity="0.3" />
      
      <!-- Abstract Sun -->
      <circle cx="15" cy="15" r="8" fill="url(#accentGradient)" opacity="0.4" />
      
      <!-- Abstract Book -->
      <rect x="75" y="20" width="10" height="15" fill="url(#primaryGradient)" opacity="0.3" />
      <rect x="77" y="22" width="6" height="2" fill="url(#accentGradient)" opacity="0.5" />
      <rect x="77" y="26" width="6" height="2" fill="url(#accentGradient)" opacity="0.5" />
      <rect x="77" y="30" width="6" height="2" fill="url(#accentGradient)" opacity="0.5" />
    </pattern>
  </defs>
  
  <!-- Main Rectangle with University Pattern -->
  <rect x="0" y="0" width="100" height="100" fill="url(#universityPattern)" />
  
  <!-- Overlay for subtle texture -->
  <rect x="0" y="0" width="100" height="100" fill="url(#primaryGradient)" opacity="0.05" />
</svg> 